<svg width="225" height="57" viewBox="0 0 225 57" fill="none" xmlns="http://www.w3.org/2000/svg">
<path d="M153.338 49.1748L148.379 51.8761L151.55 51.8616L156.509 49.1748H153.338Z" fill="#09DAFA"/>
<path d="M156.798 51.8616L161.757 49.1748H158.585L153.627 51.8761L156.798 51.8616Z" fill="#09DAFA"/>
<path d="M162.075 51.8616L167.033 49.1748H163.833L158.875 51.8761L162.075 51.8616Z" fill="#09DAFA"/>
<path d="M167.321 51.8616L172.28 49.1748H169.109L164.15 51.8761L167.321 51.8616Z" fill="#09DAFA"/>
<path d="M172.566 51.8616L177.525 49.1748H174.354L169.395 51.8761L172.566 51.8616Z" fill="#09DAFA"/>
<path d="M177.844 51.8616L182.803 49.1748H179.603L174.673 51.8761L177.844 51.8616Z" fill="#09DAFA"/>
<path d="M183.089 51.8616L188.048 49.1748H184.877L179.918 51.8761L183.089 51.8616Z" fill="#09DAFA"/>
<path d="M188.366 51.8616L193.295 49.1748H190.124L185.166 51.8761L188.366 51.8616Z" fill="#09DAFA"/>
<path d="M193.612 51.8616L198.571 49.1748H195.371L190.441 51.8761L193.612 51.8616Z" fill="#09DAFA"/>
<path d="M198.86 51.8616L203.818 49.1748H200.647L195.688 51.8761L198.86 51.8616Z" fill="#09DAFA"/>
<path d="M221.431 51.8616L221.46 49.1748H205.604L200.646 51.8761L221.431 51.8616Z" fill="#09DAFA"/>
<path d="M9.02243 5.41724H6.22607V7.13096H9.02243V5.41724Z" fill="#09DAFA"/>
<path d="M15.5955 5.41724H12.7703V7.13096H15.5955V5.41724Z" fill="#09DAFA"/>
<path d="M22.1406 5.41724H19.3442V7.13096H22.1406V5.41724Z" fill="#09DAFA"/>
<path d="M28.7117 5.41724H25.9153V7.13096H28.7117V5.41724Z" fill="#09DAFA"/>
<path d="M35.2849 5.41724H32.4597V7.13096H35.2849V5.41724Z" fill="#09DAFA"/>
<path d="M41.8301 5.41724H39.0337V7.13096H41.8301V5.41724Z" fill="#09DAFA"/>
<path d="M48.4016 5.41724H45.6052V7.13096H48.4016V5.41724Z" fill="#09DAFA"/>
<path d="M54.9768 5.41724H52.1516V7.13096H54.9768V5.41724Z" fill="#09DAFA"/>
<path d="M61.5483 5.41724H58.7231V7.13096H61.5483V5.41724Z" fill="#09DAFA"/>
<path d="M68.0933 5.41724H65.2969V7.13096H68.0933V5.41724Z" fill="#09DAFA"/>
<path fill-rule="evenodd" clip-rule="evenodd" d="M224.574 4.00837V56.0008C224.574 56.1461 224.344 56.2623 224.055 56.2623H0.490106C0.230649 56.2623 0 56.1461 0 56.0008V3.20961C0 3.15151 0.057657 3.07891 0.144143 3.03534C0.230628 2.97724 0.374785 2.9482 0.518927 2.96272L141.404 3.45649L149.764 0H214.571L224.344 3.79053C224.344 3.80021 224.353 3.80503 224.372 3.80503L224.488 3.86314H224.459C224.536 3.90187 224.574 3.95028 224.574 4.00837ZM223.536 4.26979L155.991 4.02287L151.955 5.92541H120.965L115.17 3.87764L89.8585 3.79053C89.8393 3.79053 89.8297 3.79535 89.8297 3.80503L71.9848 9.54163C71.908 9.57068 71.8215 9.58521 71.7254 9.58521L1.009 9.55617V53.1979H30.8177L34.2483 54.81H84.727L86.7162 55.7394H140.827L146.535 52.951H223.536V4.26979ZM1.009 3.47103V9.03332L71.5812 9.0624L87.9847 3.79053L1.009 3.47103Z" fill="#09DAFA"/>
</svg>
