<svg width="429" height="196" viewBox="0 0 429 196" fill="none" xmlns="http://www.w3.org/2000/svg">
<path d="M292.787 170.665L283.319 180.04L289.374 179.989L298.842 170.665H292.787Z" fill="#00FFFF"/>
<path d="M299.394 179.989L308.862 170.665H302.807L293.339 180.04L299.394 179.989Z" fill="#00FFFF"/>
<path d="M309.47 179.989L318.938 170.665H312.828L303.36 180.04L309.47 179.989Z" fill="#00FFFF"/>
<path d="M319.488 179.989L328.956 170.665H322.9L313.433 180.04L319.488 179.989Z" fill="#00FFFF"/>
<path d="M329.502 179.989L338.97 170.665H332.915L323.447 180.04L329.502 179.989Z" fill="#00FFFF"/>
<path d="M339.58 179.989L349.048 170.665H342.938L333.525 180.04L339.58 179.989Z" fill="#00FFFF"/>
<path d="M349.596 179.989L359.063 170.665H353.008L343.541 180.04L349.596 179.989Z" fill="#00FFFF"/>
<path d="M359.67 179.989L369.083 170.665H363.028L353.56 180.04L359.67 179.989Z" fill="#00FFFF"/>
<path d="M369.688 179.989L379.156 170.665H373.046L363.633 180.04L369.688 179.989Z" fill="#00FFFF"/>
<path d="M379.708 179.989L389.176 170.665H383.121L373.653 180.04L379.708 179.989Z" fill="#00FFFF"/>
<path d="M422.807 179.989L422.862 170.665H392.587L383.119 180.04L422.807 179.989Z" fill="#00FFFF"/>
<path d="M17.2276 18.801H11.8882V24.7486H17.2276V18.801Z" fill="#00FFFF"/>
<path d="M29.7783 18.801H24.3838V24.7486H29.7783V18.801Z" fill="#00FFFF"/>
<path d="M42.2757 18.801H36.9363V24.7486H42.2757V18.801Z" fill="#00FFFF"/>
<path d="M54.8229 18.801H49.4834V24.7486H54.8229V18.801Z" fill="#00FFFF"/>
<path d="M67.374 18.801H61.9795V24.7486H67.374V18.801Z" fill="#00FFFF"/>
<path d="M79.8715 18.801H74.532V24.7486H79.8715V18.801Z" fill="#00FFFF"/>
<path d="M92.4193 18.801H87.0798V24.7486H92.4193V18.801Z" fill="#00FFFF"/>
<path d="M104.974 18.801H99.5796V24.7486H104.974V18.801Z" fill="#00FFFF"/>
<path d="M117.522 18.801H112.127V24.7486H117.522V18.801Z" fill="#00FFFF"/>
<path d="M130.019 18.801H124.68V24.7486H130.019V18.801Z" fill="#00FFFF"/>
<path fill-rule="evenodd" clip-rule="evenodd" d="M428.808 13.9113V194.355C428.808 194.859 428.367 195.262 427.817 195.262H0.935821C0.440408 195.262 0 194.859 0 194.355V11.1392C0 10.9376 0.110092 10.6856 0.27523 10.5344C0.440368 10.3327 0.715624 10.2319 0.990854 10.2823L270 11.996L285.964 0H409.707L428.367 13.1553C428.367 13.1889 428.386 13.2056 428.423 13.2056L428.643 13.4073H428.588C428.735 13.5417 428.808 13.7097 428.808 13.9113ZM426.826 14.8186L297.854 13.9617L290.147 20.5646H230.973L219.909 13.4576L171.578 13.1553C171.542 13.1553 171.523 13.172 171.523 13.2056L137.45 33.1149C137.303 33.2157 137.138 33.2661 136.954 33.2661L1.92661 33.1654V184.627H58.8441L65.3946 190.222H161.78L165.578 193.448H268.899L279.799 183.77H426.826V14.8186ZM1.92661 12.0465V31.3508L136.679 31.4517L168 13.1553L1.92661 12.0465Z" fill="#00FFFF"/>
</svg>
