<svg width="393" height="196" viewBox="0 0 393 196" fill="none" xmlns="http://www.w3.org/2000/svg">
<mask id="path-1-inside-1_6946_1472" fill="white">
<path fill-rule="evenodd" clip-rule="evenodd" d="M392.881 25.0739V172.53L381.49 189.706H97.8479L86.3375 172.351L69.182 146.509H31.006C31.006 146.509 0.204102 192.671 0.204102 193.54V175.137L33.3284 125.192V33.1764L51.6367 5.57166H379.964L392.881 25.0739ZM51.7722 6.08286L33.6675 33.4065V125.422L33.5657 125.55L0.526215 175.367V192.134C1.17039 191.061 2.39094 189.143 4.76423 185.488C7.32399 181.527 10.8839 176.108 15.3593 169.335C22.9707 157.833 30.6839 146.254 30.7517 146.152L30.8534 145.998H69.3176L69.4193 146.152L86.5579 171.993L97.9835 189.22H381.32L392.542 172.299V25.2784L379.794 6.08286H51.7722Z"/>
</mask>
<path fill-rule="evenodd" clip-rule="evenodd" d="M392.881 25.0739V172.53L381.49 189.706H97.8479L86.3375 172.351L69.182 146.509H31.006C31.006 146.509 0.204102 192.671 0.204102 193.54V175.137L33.3284 125.192V33.1764L51.6367 5.57166H379.964L392.881 25.0739ZM51.7722 6.08286L33.6675 33.4065V125.422L33.5657 125.55L0.526215 175.367V192.134C1.17039 191.061 2.39094 189.143 4.76423 185.488C7.32399 181.527 10.8839 176.108 15.3593 169.335C22.9707 157.833 30.6839 146.254 30.7517 146.152L30.8534 145.998H69.3176L69.4193 146.152L86.5579 171.993L97.9835 189.22H381.32L392.542 172.299V25.2784L379.794 6.08286H51.7722Z" fill="#048BA8"/>
<path d="M392.881 25.0739H393.881V24.7728L393.715 24.5217L392.881 25.0739ZM392.881 172.53L393.715 173.082L393.881 172.831V172.53H392.881ZM381.49 189.706V190.706H382.026L382.323 190.259L381.49 189.706ZM97.8479 189.706L97.0145 190.259L97.3112 190.706H97.8479V189.706ZM86.3375 172.351L87.1709 171.798L87.1706 171.797L86.3375 172.351ZM69.182 146.509L70.0151 145.956L69.7185 145.509H69.182V146.509ZM31.006 146.509V145.509H30.4711L30.1742 145.954L31.006 146.509ZM0.204102 175.137L-0.62927 174.584L-0.795898 174.835V175.137H0.204102ZM33.3284 125.192L34.1618 125.745L34.3284 125.494V125.192H33.3284ZM33.3284 33.1764L32.4951 32.6237L32.3284 32.875V33.1764H33.3284ZM51.6367 5.57166V4.57166H51.0999L50.8033 5.01894L51.6367 5.57166ZM379.964 5.57166L380.798 5.01944L380.501 4.57166H379.964V5.57166ZM51.7722 6.08286V5.08286H51.2352L50.9386 5.5305L51.7722 6.08286ZM33.6675 33.4065L32.8339 32.8541L32.6675 33.1053V33.4065H33.6675ZM33.6675 125.422L34.4499 126.045L34.6675 125.772V125.422H33.6675ZM33.5657 125.55L32.7834 124.927L32.7563 124.961L32.7324 124.998L33.5657 125.55ZM0.526215 175.367L-0.307156 174.814L-0.473785 175.065V175.367H0.526215ZM0.526215 192.134H-0.473785V195.744L1.38368 192.649L0.526215 192.134ZM4.76423 185.488L5.60294 186.033L5.60416 186.031L4.76423 185.488ZM15.3593 169.335L14.5253 168.783L14.5249 168.783L15.3593 169.335ZM30.7517 146.152L29.9184 145.599L29.9183 145.599L30.7517 146.152ZM30.8534 145.998V144.998H30.3168L30.0201 145.445L30.8534 145.998ZM69.3176 145.998L70.1509 145.445L69.8543 144.998H69.3176V145.998ZM69.4193 146.152L70.2527 145.599L70.2527 145.599L69.4193 146.152ZM97.9835 189.22L97.1502 189.773L97.4468 190.22H97.9835V189.22ZM381.32 189.22V190.22H381.857L382.153 189.773L381.32 189.22ZM392.542 172.299L393.376 172.852L393.542 172.601V172.299H392.542ZM392.542 25.2784H393.542V24.9766L393.375 24.7252L392.542 25.2784ZM379.794 6.08286L380.627 5.52963L380.331 5.08286H379.794V6.08286ZM392.881 25.0739H391.881V172.53H392.881H393.881V25.0739H392.881ZM392.881 172.53L392.048 171.977L380.656 189.153L381.49 189.706L382.323 190.259L393.715 173.082L392.881 172.53ZM381.49 189.706V188.706H97.8479V189.706V190.706H381.49V189.706ZM97.8479 189.706L98.6813 189.153L87.1709 171.798L86.3375 172.351L85.5041 172.903L97.0145 190.259L97.8479 189.706ZM86.3375 172.351L87.1706 171.797L70.0151 145.956L69.182 146.509L68.3489 147.063L85.5044 172.904L86.3375 172.351ZM69.182 146.509V145.509H31.006V146.509V147.509H69.182V146.509ZM31.006 146.509C30.1742 145.954 30.174 145.955 30.1738 145.955C30.1736 145.955 30.1732 145.956 30.1727 145.957C30.1718 145.958 30.1704 145.96 30.1685 145.963C30.1648 145.968 30.1592 145.977 30.1518 145.988C30.137 146.01 30.1149 146.043 30.0857 146.087C30.0274 146.174 29.9409 146.304 29.8281 146.473C29.6024 146.812 29.2715 147.308 28.8503 147.94C28.0079 149.204 26.8046 151.011 25.3606 153.182C22.4726 157.524 18.6218 163.322 14.7708 169.147C10.9202 174.972 7.0681 180.827 4.17804 185.28C2.73346 187.506 1.52669 189.386 0.680008 190.739C0.257385 191.414 -0.0798833 191.965 -0.313241 192.364C-0.428986 192.562 -0.525754 192.734 -0.596011 192.87C-0.63036 192.936 -0.66621 193.009 -0.695928 193.08C-0.710595 193.115 -0.729911 193.164 -0.747073 193.22C-0.758516 193.258 -0.795898 193.382 -0.795898 193.54H0.204102H1.2041C1.2041 193.684 1.17048 193.789 1.1665 193.802C1.1612 193.819 1.15659 193.832 1.15395 193.839C1.1512 193.847 1.14929 193.851 1.14878 193.853C1.14867 193.853 1.157 193.834 1.18093 193.787C1.22724 193.698 1.30343 193.561 1.41328 193.373C1.63112 193.001 1.95562 192.47 2.37523 191.8C3.21303 190.462 4.41265 188.593 5.85574 186.369C8.74104 181.923 12.5894 176.074 16.4392 170.25C20.2888 164.427 24.1384 158.63 27.0258 154.29C28.4695 152.119 29.6725 150.313 30.5146 149.049C30.9357 148.417 31.2665 147.921 31.492 147.583C31.6048 147.414 31.6913 147.284 31.7495 147.197C31.7786 147.153 31.8007 147.12 31.8155 147.098C31.8229 147.087 31.8285 147.078 31.8322 147.073C31.8341 147.07 31.8355 147.068 31.8364 147.067C31.8369 147.066 31.8372 147.065 31.8374 147.065C31.8377 147.065 31.8378 147.064 31.006 146.509ZM0.204102 193.54H1.2041V175.137H0.204102H-0.795898V193.54H0.204102ZM0.204102 175.137L1.03747 175.689L34.1618 125.745L33.3284 125.192L32.4951 124.64L-0.62927 174.584L0.204102 175.137ZM33.3284 125.192H34.3284V33.1764H33.3284H32.3284V125.192H33.3284ZM33.3284 33.1764L34.1618 33.7292L52.47 6.12437L51.6367 5.57166L50.8033 5.01894L32.4951 32.6237L33.3284 33.1764ZM51.6367 5.57166V6.57166H379.964V5.57166V4.57166H51.6367V5.57166ZM379.964 5.57166L379.13 6.12387L392.048 25.6262L392.881 25.0739L393.715 24.5217L380.798 5.01944L379.964 5.57166ZM51.7722 6.08286L50.9386 5.5305L32.8339 32.8541L33.6675 33.4065L34.5011 33.9588L52.6058 6.63521L51.7722 6.08286ZM33.6675 33.4065H32.6675V125.422H33.6675H34.6675V33.4065H33.6675ZM33.6675 125.422L32.8851 124.8L32.7834 124.927L33.5657 125.55L34.3481 126.173L34.4499 126.045L33.6675 125.422ZM33.5657 125.55L32.7324 124.998L-0.307156 174.814L0.526215 175.367L1.35959 175.919L34.3991 126.103L33.5657 125.55ZM0.526215 175.367H-0.473785V192.134H0.526215H1.52622V175.367H0.526215ZM0.526215 192.134L1.38368 192.649C2.01706 191.593 3.2275 189.691 5.60294 186.033L4.76423 185.488L3.92552 184.944C1.55439 188.596 0.323723 190.528 -0.331254 191.619L0.526215 192.134ZM4.76423 185.488L5.60416 186.031C8.16093 182.074 11.7184 176.659 16.1936 169.886L15.3593 169.335L14.5249 168.783C10.0494 175.557 6.48704 180.979 3.92429 184.946L4.76423 185.488ZM15.3593 169.335L16.1932 169.886C23.805 158.384 31.5146 146.81 31.5851 146.704L30.7517 146.152L29.9183 145.599C29.9183 145.599 29.9181 145.599 29.9177 145.6C29.9173 145.6 29.9167 145.601 29.916 145.602C29.9147 145.604 29.9128 145.607 29.9104 145.611C29.9057 145.618 29.8992 145.628 29.8908 145.64C29.874 145.665 29.8499 145.702 29.8189 145.748C29.7568 145.841 29.6668 145.977 29.5506 146.151C29.3183 146.5 28.9817 147.006 28.5559 147.646C27.7042 148.925 26.4958 150.742 25.0515 152.915C22.1631 157.26 18.3316 163.031 14.5253 168.783L15.3593 169.335ZM30.7517 146.152L31.585 146.704L31.6867 146.551L30.8534 145.998L30.0201 145.445L29.9184 145.599L30.7517 146.152ZM30.8534 145.998V146.998H69.3176V145.998V144.998H30.8534V145.998ZM69.3176 145.998L68.4843 146.551L68.586 146.704L69.4193 146.152L70.2527 145.599L70.1509 145.445L69.3176 145.998ZM69.4193 146.152L68.586 146.704L85.7245 172.545L86.5579 171.993L87.3912 171.44L70.2527 145.599L69.4193 146.152ZM86.5579 171.993L85.7245 172.545L97.1502 189.773L97.9835 189.22L98.8169 188.667L87.3912 171.44L86.5579 171.993ZM97.9835 189.22V190.22H381.32V189.22V188.22H97.9835V189.22ZM381.32 189.22L382.153 189.773L393.376 172.852L392.542 172.299L391.709 171.747L380.487 188.667L381.32 189.22ZM392.542 172.299H393.542V25.2784H392.542H391.542V172.299H392.542ZM392.542 25.2784L393.375 24.7252L380.627 5.52963L379.794 6.08286L378.961 6.63608L391.709 25.8317L392.542 25.2784ZM379.794 6.08286V5.08286H51.7722V6.08286V7.08285H379.794V6.08286Z" fill="#00FFFB" mask="url(#path-1-inside-1_6946_1472)"/>
<path d="M12.1209 194.077L34.8366 159.801H65.3842L81.7429 184.466V194.639H11.731L12.1209 194.077Z" fill="#048BA8" stroke="#00FFFB" stroke-width="2" stroke-miterlimit="10"/>
<g opacity="0.1">
<path d="M379.695 6.07166L392.382 25.224V172.378L381.222 189.205H98.1162L86.7539 172.075V172.074L69.5986 146.233L69.4502 146.009H30.7383L30.5898 146.232L31.0059 146.509C30.6238 146.254 30.5925 146.234 30.5898 146.233L30.5889 146.234C30.5879 146.235 30.5859 146.238 30.584 146.241C30.5803 146.246 30.5746 146.254 30.5674 146.265C30.5526 146.287 30.5311 146.321 30.502 146.365C30.4437 146.452 30.3569 146.581 30.2441 146.75C30.0185 147.089 29.6877 147.585 29.2666 148.217C28.4244 149.481 27.2211 151.288 25.7773 153.458C22.8895 157.8 19.0381 163.598 15.1875 169.423C11.3373 175.248 7.48644 181.101 4.59766 185.552C3.15345 187.778 1.94797 189.655 1.10352 191.004C0.959594 191.234 0.826917 191.45 0.704102 191.649V175.287L33.7451 125.469L33.8281 125.343V33.3265L51.9053 6.07166H379.695Z" fill="#048BA8" stroke="#00FFFB"/>
</g>
<g opacity="0.1">
<path d="M65.1157 160.301L81.2427 184.615V194.139H12.6792L35.105 160.301H65.1157Z" fill="#048BA8" stroke="#00FFFB"/>
</g>
<path opacity="0.1" d="M380.532 34.3545L380.449 34.2295L368.819 16.6953L368.672 16.4717H301.829L295.306 6.61328C295.917 6.6387 296.779 6.66017 297.855 6.6748C300.173 6.70631 303.505 6.71542 307.512 6.70703C315.529 6.69025 326.258 6.60544 337 6.5C347.741 6.39456 358.497 6.26782 366.567 6.16797C370.602 6.11805 373.966 6.0748 376.321 6.04395C377.498 6.02852 378.423 6.01626 379.054 6.00781C379.353 6.00381 379.586 6.00024 379.749 5.99805L392.5 25.2236V172.532L381.221 189.538H228.971L234.411 181.337H370.417L370.565 181.113L380.449 166.212L380.532 166.086V34.3545Z" fill="#048BA8" stroke="#00FFFB"/>
<path opacity="0.1" d="M41.5835 160.71L38.8745 164.796H34.8052L34.6577 165.02L22.3159 183.627L22.1333 183.904L22.3159 184.18L26.7397 190.876L26.8882 191.101H57.0464L59.0962 194.191H12.6626L35.1108 160.341L41.5835 160.71Z" fill="#048BA8" stroke="#00FFFB"/>
<path opacity="0.1" d="M51.8604 5.99512C52.0424 5.99529 52.3128 5.99571 52.665 5.99609C53.3698 5.99687 54.4036 5.9981 55.7188 6C58.3494 6.00379 62.1072 6.01013 66.6143 6.02051C75.6284 6.04127 87.6409 6.07771 99.6348 6.1416C111.629 6.2055 123.604 6.2974 132.542 6.42676C137.011 6.49145 140.719 6.56529 143.289 6.65039C144.575 6.69298 145.571 6.73856 146.233 6.78613C146.295 6.79053 146.353 6.79543 146.407 6.7998L140.45 15.8066H57.7754L57.627 16.0303L40.54 41.7695L40.4561 41.8955V123.605L40.54 123.731L46.7617 133.086L46.9092 133.31H77.8135L114.885 189.181H98.1152L69.6152 146.208L69.4668 145.984H30.7373L30.5889 146.208L0.5 191.574V175.287L33.6426 125.315L33.7256 125.189V33.3271L51.8535 5.99512C51.8558 5.99512 51.8581 5.99512 51.8604 5.99512Z" fill="#048BA8" stroke="#00FFFB"/>
<path d="M9.28223 178.41L8.26465 179.944V164.237L9.28223 162.6V178.41Z" fill="#048BA8" stroke="#00FFFB"/>
<path d="M12.9937 172.816L11.9937 174.335V158.613L12.9937 156.99V172.816Z" fill="#048BA8" stroke="#00FFFB"/>
<path d="M16.7231 167.189L15.7056 168.724V152.992L16.7231 151.368V167.189Z" fill="#048BA8" stroke="#00FFFB"/>
<path d="M90.2231 0.5L91.8208 2.90918L91.9692 3.13281H102.225L103.698 5.35352H51.1821L51.0337 5.57715L32.8618 32.9775L32.7788 33.1016L32.7778 33.252V33.3477C32.7776 33.4111 32.7773 33.5052 32.7769 33.6279C32.7759 33.8734 32.7745 34.2333 32.7729 34.6914C32.7698 35.6078 32.7653 36.9174 32.7612 38.4883C32.753 41.6299 32.7455 45.8188 32.7466 50.0078C32.7476 54.1968 32.7578 58.3875 32.7856 61.5312C32.7978 62.8988 32.8139 64.0702 32.8335 64.958L30.8794 62.0107V23.5381L46.1753 0.5H90.2231Z" fill="#048BA8" stroke="#00FFFB"/>
<path d="M392.363 18.0226L384.635 6.37122L392.363 6.30579V18.0226Z" fill="#048BA8" stroke="#00FFFB"/>
<path d="M392.315 152.727C392.317 154.875 392.319 157.78 392.321 160.699C392.323 163.617 392.325 166.55 392.327 168.752C392.328 169.853 392.328 170.772 392.329 171.416C392.329 171.737 392.33 171.99 392.33 172.163C392.33 172.205 392.33 172.243 392.33 172.276L381.22 189.027H282.674L284.537 186.218H374.518L374.667 185.995L386.771 167.745L386.854 167.62V159.184L392.313 150.952C392.313 151.454 392.315 152.053 392.315 152.727Z" fill="#048BA8" stroke="#00FFFB"/>
<path d="M368.504 8.52295H360.251L360.103 8.74463L358.03 11.8452H316.017L313.825 8.5415L313.677 8.31787H222.68L221.487 6.50342L370.133 6.04834L368.504 8.52295Z" fill="#048BA8" stroke="#00FFFB"/>
</svg>
