<svg width="295" height="202" viewBox="0 0 295 202" fill="none" xmlns="http://www.w3.org/2000/svg">
<path d="M122.252 136.838C122.252 141.637 117.493 145.526 111.622 145.526C105.75 145.526 100.991 141.637 100.991 136.838C100.991 132.04 105.75 128.15 111.622 128.15C117.493 128.15 122.252 132.04 122.252 136.838Z" fill="#00FFFB"/>
<path d="M194.009 136.838C194.009 141.637 189.25 145.526 183.378 145.526C177.507 145.526 172.748 141.637 172.748 136.838C172.748 132.04 177.507 128.15 183.378 128.15C189.25 128.15 194.009 132.04 194.009 136.838Z" fill="#00FFFB"/>
<path fill-rule="evenodd" clip-rule="evenodd" d="M200.653 0C216.065 0 228.559 24.3133 228.559 54.3026C228.558 63.3921 227.4 71.9592 225.371 79.4866C267.175 91.181 295 112.005 295 135.753C294.999 172.34 228.961 202 147.5 202C66.0391 202 0.00127622 172.34 0 135.753C0 112.477 26.7295 92.0063 67.1526 80.1908C65.0038 72.4959 63.7839 63.676 63.7838 54.3026C63.7838 24.3137 76.2778 0.000682275 91.6892 0C107.101 0 119.595 24.3133 119.595 54.3026C119.595 60.0577 119.129 65.604 118.276 70.8091C127.722 69.9564 137.495 69.5068 147.5 69.5068C156.554 69.5068 165.418 69.8742 174.022 70.5758C173.194 65.4386 172.748 59.9715 172.748 54.3026C172.748 24.3137 185.242 0.000682275 200.653 0ZM204.642 119.868C199.329 109.005 90.4658 108.603 85.0476 119.868C81.0637 128.154 77.0751 186.816 85.0476 180.685C118.269 155.137 174.08 153.538 204.642 180.685C212.621 187.767 209.955 130.734 204.642 119.868Z" fill="#00FFFB"/>
</svg>
